<svg width="36" height="48" viewBox="0 0 36 48" fill="none"
    xmlns="http://www.w3.org/2000/svg">
    <g opacity="0.7" filter="url(#filter0_d_6814_180125)">
        <ellipse cx="5" cy="1.5" rx="5" ry="1.5" transform="matrix(-1 8.74228e-08 8.74228e-08 1 23 38)" fill="#A3A3A3"/>
    </g>
    <g opacity="0.2" filter="url(#filter1_d_6814_180125)">
        <ellipse cx="7" cy="2.5" rx="7" ry="2.5" transform="matrix(-1 8.74228e-08 8.74228e-08 1 25 37)" fill="#A3A3A3"/>
    </g>
    <path d="M22.5 28L14 28L15.6645 37.9868C15.8581 39.1485 16.8632 40 18.0409 40C19.1822 40 20.1668 39.1993 20.3996 38.0821L22.5 28Z" fill="white"/>
    <g filter="url(#filter2_d_6814_180125)">
        <circle cx="10" cy="10" r="10" transform="matrix(-1 8.74228e-08 8.74228e-08 1 28 8)" fill="#FF4201"/>
        <circle cx="10" cy="10" r="11.5" transform="matrix(-1 8.74228e-08 8.74228e-08 1 28 8)" stroke="white" stroke-width="3"/>
    </g>
    <circle cx="4" cy="4" r="4" transform="matrix(-1 8.74228e-08 8.74228e-08 1 22 14)" fill="white"/>
    <defs>
        <filter id="filter0_d_6814_180125" x="8" y="33.5" width="20" height="13" filterUnits="userSpaceOnUse" color-interpolation-filters="sRGB">
            <feFlood flood-opacity="0" result="BackgroundImageFix"/>
            <feColorMatrix in="SourceAlpha" type="matrix" values="0 0 0 0 0 0 0 0 0 0 0 0 0 0 0 0 0 0 127 0" result="hardAlpha"/>
            <feOffset dy="0.5"/>
            <feGaussianBlur stdDeviation="2.5"/>
            <feComposite in2="hardAlpha" operator="out"/>
            <feColorMatrix type="matrix" values="0 0 0 0 0 0 0 0 0 0 0 0 0 0 0 0 0 0 0.5 0"/>
            <feBlend mode="normal" in2="BackgroundImageFix" result="effect1_dropShadow_6814_180125"/>
            <feBlend mode="normal" in="SourceGraphic" in2="effect1_dropShadow_6814_180125" result="shape"/>
        </filter>
        <filter id="filter1_d_6814_180125" x="6" y="32.5" width="24" height="15" filterUnits="userSpaceOnUse" color-interpolation-filters="sRGB">
            <feFlood flood-opacity="0" result="BackgroundImageFix"/>
            <feColorMatrix in="SourceAlpha" type="matrix" values="0 0 0 0 0 0 0 0 0 0 0 0 0 0 0 0 0 0 127 0" result="hardAlpha"/>
            <feOffset dy="0.5"/>
            <feGaussianBlur stdDeviation="2.5"/>
            <feComposite in2="hardAlpha" operator="out"/>
            <feColorMatrix type="matrix" values="0 0 0 0 0 0 0 0 0 0 0 0 0 0 0 0 0 0 0.5 0"/>
            <feBlend mode="normal" in2="BackgroundImageFix" result="effect1_dropShadow_6814_180125"/>
            <feBlend mode="normal" in="SourceGraphic" in2="effect1_dropShadow_6814_180125" result="shape"/>
        </filter>
        <filter id="filter2_d_6814_180125" x="0" y="0" width="36" height="36" filterUnits="userSpaceOnUse" color-interpolation-filters="sRGB">
            <feFlood flood-opacity="0" result="BackgroundImageFix"/>
            <feColorMatrix in="SourceAlpha" type="matrix" values="0 0 0 0 0 0 0 0 0 0 0 0 0 0 0 0 0 0 127 0" result="hardAlpha"/>
            <feOffset/>
            <feGaussianBlur stdDeviation="2.5"/>
            <feComposite in2="hardAlpha" operator="out"/>
            <feColorMatrix type="matrix" values="0 0 0 0 0 0 0 0 0 0 0 0 0 0 0 0 0 0 0.2 0"/>
            <feBlend mode="normal" in2="BackgroundImageFix" result="effect1_dropShadow_6814_180125"/>
            <feBlend mode="normal" in="SourceGraphic" in2="effect1_dropShadow_6814_180125" result="shape"/>
        </filter>
    </defs>
</svg>